<?xml version="1.0" standalone="no"?>
<!DOCTYPE svg PUBLIC "-//W3C//DTD SVG 20010904//EN"
 "http://www.w3.org/TR/2001/REC-SVG-20010904/DTD/svg10.dtd">
<svg version="1.0" xmlns="http://www.w3.org/2000/svg"
 width="500.000000pt" height="500.000000pt" viewBox="0 0 500.000000 500.000000"
 preserveAspectRatio="xMidYMid meet">
<metadata>
Created by potrace 1.11, written by Peter Selinger 2001-2013
</metadata>
<g transform="translate(0.000000,500.000000) scale(0.100000,-0.100000)"
fill="#000000" stroke="none">
<path d="M2437 4914 c-38 -7 -84 -18 -102 -24 -17 -6 -41 -13 -51 -15 -10 -2
-80 -21 -154 -40 -74 -20 -148 -39 -165 -41 -34 -5 -172 -34 -195 -41 -8 -2
-17 -4 -20 -5 -3 0 -14 -5 -25 -11 -11 -6 -23 -11 -26 -12 -7 0 -82 -38 -89
-45 -3 -3 -17 -11 -32 -19 -16 -8 -28 -18 -28 -23 0 -4 -6 -8 -14 -8 -8 0 -49
-34 -92 -76 -105 -100 -152 -138 -194 -154 -19 -8 -86 -42 -150 -76 l-115 -61
-70 7 c-68 7 -204 5 -235 -3 -8 -2 -28 -10 -45 -16 -16 -7 -39 -17 -50 -21
-63 -26 -167 -161 -181 -237 -16 -84 -3 -280 26 -378 17 -55 91 -213 123 -260
23 -33 24 -39 11 -52 -17 -17 -87 -120 -97 -143 -4 -8 -16 -30 -27 -47 -49
-82 -103 -231 -129 -363 -6 -30 -14 -66 -17 -80 -3 -14 -7 -82 -9 -152 -2 -70
-9 -136 -15 -147 -5 -11 -33 -46 -61 -78 -62 -70 -78 -99 -85 -157 -8 -53 11
-91 117 -232 116 -155 111 -143 110 -312 0 -81 -3 -156 -4 -166 -6 -33 14
-108 39 -147 12 -20 51 -61 86 -90 125 -108 136 -121 143 -174 14 -112 17
-120 55 -156 29 -28 64 -45 137 -70 104 -34 119 -46 260 -203 24 -25 51 -50
60 -54 10 -4 49 -25 86 -46 68 -38 70 -39 170 -38 56 0 111 -1 123 -3 11 -3
35 -27 53 -55 18 -28 45 -56 59 -64 35 -17 113 -35 176 -40 41 -4 56 -11 90
-45 63 -62 67 -65 126 -92 95 -45 192 -74 280 -83 25 -3 68 -8 95 -11 61 -8
303 -9 342 -1 15 3 53 8 83 11 159 18 341 94 408 170 35 40 45 45 89 49 111 9
164 37 206 106 11 19 26 38 33 43 7 4 68 9 136 10 119 3 125 4 173 35 28 17
67 40 87 52 20 11 54 41 75 67 71 87 143 150 191 168 26 9 65 23 88 31 106 38
154 95 154 187 0 49 21 93 57 122 41 31 207 169 220 181 13 12 10 64 -8 159
-12 66 -4 286 11 316 12 23 88 128 101 139 11 9 86 125 103 158 17 33 17 82 0
127 -10 24 -9 23 -84 110 -33 38 -60 78 -61 90 -1 11 -2 65 -4 120 -3 96 -26
258 -45 320 -56 180 -107 289 -188 405 -29 40 -66 82 -83 92 -17 11 -29 22
-25 25 3 3 11 1 19 -5 17 -15 28 -6 64 55 70 113 116 239 138 368 7 41 7 214
0 248 -14 70 -84 171 -149 216 -76 53 -154 69 -296 64 -212 -9 -192 -12 -340
66 -108 57 -150 85 -210 143 -117 113 -159 145 -245 187 -100 49 -176 72 -385
115 -151 32 -239 56 -360 101 -59 22 -158 25 -243 9z"/>
</g>
</svg>
